<?xml version="1.0" encoding="utf-8"?>
<!-- Generator: Adobe Illustrator 23.0.3, SVG Export Plug-In . SVG Version: 6.00 Build 0)  -->
<svg version="1.1" id="Livello_1" xmlns="http://www.w3.org/2000/svg" xmlns:xlink="http://www.w3.org/1999/xlink" x="0px" y="0px"
	 viewBox="0 0 16 16" style="enable-background:new 0 0 16 16;" xml:space="preserve">
<style type="text/css">
	.st0{fill-rule:evenodd;clip-rule:evenodd;fill:#231F20;}
</style>
<path class="st0" d="M15.9,12.2c-0.2,0.9-0.5,1.7-1.2,2.4c-0.8,0.8-1.9,1.2-3,1.3c-0.3,0-0.5,0-0.8,0.1C9,16,7,16,5,16
	c-0.4,0-0.7,0-1.1-0.1c-0.7-0.1-1.4-0.3-2-0.7c-1.3-0.8-1.8-2-1.9-3.5c0-0.2,0-0.5,0-0.7c0-2,0-4,0-6V4.9c0-0.4,0-0.7,0.1-1.1
	C0.3,2.9,0.6,2,1.3,1.4c0.8-0.8,1.9-1.2,3-1.3C4.5,0,4.8,0,5,0c2,0,4,0,6,0c0.4,0,0.7,0,1.1,0.1c0.7,0.1,1.4,0.3,2,0.7
	c1.3,0.8,1.8,2,1.9,3.5c0,0.2,0,0.5,0,0.7c0,2,0,6,0,6.1C16,11.5,15.9,11.9,15.9,12.2z M14.5,5.1c0-0.4,0-0.8-0.1-1.1
	c-0.2-1.2-0.9-2-2.1-2.3c-0.7-0.2-1.3-0.2-2-0.2c-1.8,0-3.5,0-5.3,0c-0.4,0-0.7,0-1.1,0.1C2.8,1.8,2,2.5,1.7,3.7
	C1.5,4.3,1.5,5,1.5,5.7c0,1.8,0,3.5,0,5.3c0,0.4,0,0.7,0.1,1.1c0.2,1.2,0.9,2,2.1,2.3c0.7,0.2,1.3,0.2,2,0.2c1.7,0,3.5,0,5.3,0
	c0.4,0,0.8,0,1.1-0.1c1.2-0.2,2-0.9,2.3-2.1c0.2-0.7,0.2-1.3,0.2-2c0-0.8,0-1.6,0-2.3C14.5,7,14.5,6.1,14.5,5.1z M12.3,4.7
	c-0.6,0-1-0.4-1-1c0-0.5,0.4-1,1-1s1,0.4,1,1C13.2,4.3,12.8,4.7,12.3,4.7z M8,12.1c-2.3,0-4.1-1.9-4.1-4.2s1.9-4.1,4.2-4.1
	s4.1,1.9,4.1,4.1C12.1,10.3,10.3,12.1,8,12.1z M8,5.4C6.6,5.4,5.3,6.6,5.4,8c0,1.4,1.2,2.7,2.7,2.6c1.4,0,2.6-1.2,2.6-2.6
	C10.6,6.6,9.4,5.4,8,5.4z"/>
</svg>
