<?xml version="1.0" encoding="utf-8"?>
<!-- Generator: Adobe Illustrator 23.0.3, SVG Export Plug-In . SVG Version: 6.00 Build 0)  -->
<svg version="1.1" id="Livello_1" xmlns="http://www.w3.org/2000/svg" xmlns:xlink="http://www.w3.org/1999/xlink" x="0px" y="0px"
	 viewBox="0 0 16 16" style="enable-background:new 0 0 16 16;" xml:space="preserve">
<style type="text/css">
	.st0{fill-rule:evenodd;clip-rule:evenodd;fill:#231F20;}
</style>
<path class="st0" d="M9.3,13.5c-3.7,0-6.7-3-6.7-6.8C2.5,3,5.5,0,9.2,0S16,3,16,6.8C16,10.5,13,13.5,9.3,13.5z M9.2,1.7
	c-2.8,0-5,2.3-5,5c0,2.8,2.2,5,5,5s5-2.3,5-5S12,1.7,9.2,1.7z M4.2,13.3L1.6,16L0,14.4l2.7-2.7C3.1,12.4,3.6,12.9,4.2,13.3z"/>
</svg>
