<?xml version="1.0" encoding="utf-8"?>
<!-- Generator: Adobe Illustrator 23.0.3, SVG Export Plug-In . SVG Version: 6.00 Build 0)  -->
<svg version="1.1" id="Livello_1" xmlns="http://www.w3.org/2000/svg" xmlns:xlink="http://www.w3.org/1999/xlink" x="0px" y="0px"
	 viewBox="0 0 16 12.7" style="enable-background:new 0 0 16 12.7;" xml:space="preserve">
<style type="text/css">
	.st0{fill-rule:evenodd;clip-rule:evenodd;}
</style>
<path class="st0" d="M14.6,1.1L14,0.7c0,0,1.2-0.3,1.5-0.5C15.3,0.5,14.9,1,14.6,1.1z M14,6.5c-0.1,0.5-0.4,1-0.6,1.5
	c-1.5,2.6-4.2,4.3-7.1,4.6C2.7,13,0,11.4,0,11.4c2.2,0.6,5-1.6,5-1.6c-2.5,0.3-3.1-2.2-3.1-2.2c0.6,0,1.2-0.3,1.2-0.3
	C0.6,6.7,0.6,4.3,0.6,4.3c0.6,0.3,1.6,0.3,1.6,0.3c-2.5-1.8-0.9-4.3-0.9-4.3s1.6,2.2,3.4,2.8C6.5,3.7,7.8,3.7,8,3.7h0.4
	c-0.1-0.3-0.1-0.6,0-0.9C8.5,1.3,9.6,0.2,11.1,0c1.9-0.2,3.4,1.2,3.4,3.1C14.6,3.1,14.5,5,14,6.5z M16,1.6c-0.3,0.4-0.8,0.8-1.1,1
	V1.9C14.9,1.9,15.4,1.9,16,1.6z"/>
</svg>
