<svg id="Livello_1" data-name="Livello 1" xmlns="http://www.w3.org/2000/svg" viewBox="0 0 897.15 992.34"><defs><style>.cls-1{fill:none;}.cls-2,.cls-3,.cls-4{fill:#1d1d1b;}.cls-2{opacity:0.21;}.cls-3{opacity:0.09;}</style></defs><title>logo-compact</title><path class="cls-1" d="M0,0V986q52.29,0,84.91-48.83A208.28,208.28,0,0,0,104.79,900L188.84,687.7h9.32v-42H90.42v-6.36q37.89,0,50.65-7.05,18.6-10.12,18.62-44.25V353.79H145.41q-44.1,0-70.47,39.08Q58.72,416.93,42.3,472.8H35.59l3.25-125.38H327.71l3,125.38h-6.92q-16.89-56.73-32.67-80.37Q265,353.79,220.4,353.79H206.34V588q0,34.58,17.89,44.48,12.27,6.82,50.41,6.82v5.58h66.61v-5.59q37.65,0,50.42-7.05Q410.5,622,410.51,588V404.87q0-34.12-18.63-44.25-12.54-6.83-50.63-6.83v-6.37h168V46.32q-2.67-24.74-18-33.12c-8.08-4.38-24.17-6.64-48.11-6.8v.2q-37.28,0-49.76,7.05-18.11,10.11-18.11,44v183q0,34.11,17.88,44.21,12.5,7.06,50,7v6.38H269.19v-6.38q33.51,0,47.66-10.78,11.75-10.8,11.75-40.5V8.82H316.72L218.84,298.29h-8.43L109.94,8.82H97.73V199q0,50,11.43,68.67,14.88,24.24,60,24.22v6.38H22.22v-6.38q38,0,53.56-18.93Q90,255.8,90,199V53.05q0-31-17.71-40.52Q60.67,6.4,25.89,6.37H22.22V0H151.27l81.2,235.41L312.07,0H624.8v6.1h45.69V0H806.61v6.1h90.32V347.42h.22V0Z"/><path class="cls-1" d="M475.48,360.83q-18.33,10.37-18.32,44V588q0,33.47,18.54,44c8.47,4.77,24.71,7.18,48.61,7.25q36.09-.1,50.9-20.23,13.14-17.61,13.15-55.93V380q-20.72-25.17-56.59-26.13H519Q487.08,354.42,475.48,360.83Z"/><path class="cls-1" d="M824.52,588V430.34q0-41.79-13.22-58.06Q796.35,354,756.7,354v-.16h-136Z"/><path class="cls-1" d="M845.37,373.84q-13.15,17.4-13.16,56.15V651.08l-7.39.06L596.05,389.06V562.73q0,39.39,13,56.79,14.87,19.8,52,19.8v6.38H597V992.31H378.76v0h-180v0h-.62V888.51h-80l-6.39,16.14a125.24,125.24,0,0,0-6.88,21.54l-2.23,16.48q0,43.3,65.9,43.3l1.51,6.36H897.15V354Q860.28,354,845.37,373.84Z"/><polygon class="cls-1" points="176.71 740.59 120.14 882.14 198.16 882.14 198.16 795.11 176.71 740.59"/><polygon class="cls-2" points="198.16 795.11 198.16 882.14 232.41 882.14 198.16 795.11"/><path class="cls-2" d="M236.17,985.48q27.21-3.32,27.22-18.89L262,958.38a109.88,109.88,0,0,0-3.56-11.78l-22.88-58.09h-37.4v103.8h.62l-.22-6.34Q231,986,236.17,985.48Z"/><path class="cls-2" d="M260.29,688.29c0-1.41-1-3.13-4-3.13h-5.61v6.45h5.18C257.53,691.61,260.29,691.18,260.29,688.29Z"/><path class="cls-2" d="M302.49,935.8q14,34.1,27.87,42.46,12.54,7.69,40,7.69l8.42,0v6.34H597V645.7H341.25v-.79H274.64v.78H198.16v42h2.13ZM254.9,671a22.21,22.21,0,1,1-21.77,22.26A22,22,0,0,1,254.9,671Z"/><path class="cls-2" d="M254.9,711.4a18.23,18.23,0,1,0-17.85-18.18A18.06,18.06,0,0,0,254.9,711.4Zm-9.21-30.11h10.89c1.37,0,8.88,0,8.88,7.1a6.42,6.42,0,0,1-4.32,6.34l4.32,10.33h-5.29l-3.79-9.46h-5.72v9.46h-5Z"/><path class="cls-3" d="M525.46,353.79c-2.22,0-4.35,0-6.45.06h12.76c-1,0-1.92-.06-2.9-.06Z"/><path class="cls-3" d="M574.81,13.42q-18.31,10.32-18.31,44V210.57q0,48.85,17.7,69.08,19,21.59,66.31,21.57,52.68,0,75.36-28.84,20.49-25.73,20.51-80.74V69.08q0-47.08-35.87-59-11.65-3.72-30-3.74V6.11H624.8v.26Q587.53,6.37,574.81,13.42Z"/><path class="cls-3" d="M525.46,347.42h89.62l5.6,6.43h136v-6.43H896.93V6.11H806.61v.26Q746,6.37,746,71.08V188.39q0,63.83-26.57,92t-84.92,28.17q-37.37,0-65.9-9.9Q523,282.83,513.51,243.2q-3.67-15.18-3.66-55.47V57.44a102,102,0,0,0-.58-11.12v301.1h16.19Z"/><path class="cls-4" d="M274.64,644.91v-5.58q-38.13,0-50.41-6.82Q206.34,622.6,206.34,588V353.79H220.4q44.58,0,70.75,38.64,15.78,23.63,32.67,80.37h6.92l-3-125.38H38.84L35.59,472.8H42.3q16.43-55.86,32.64-79.93,26.37-39.08,70.47-39.08h14.28V588q0,34.14-18.62,44.25-12.78,7.05-50.65,7.05v6.36H198.16v-.78Z"/><rect class="cls-2" x="198.16" y="644.91" width="76.48" height="0.78"/><rect class="cls-4" x="198.16" y="644.91" width="76.48" height="0.78"/><rect class="cls-4" x="198.78" y="992.31" width="179.98" height="0.02"/><path class="cls-4" d="M168.53,986q-65.9,0-65.9-43.3l2.23-16.48a125.24,125.24,0,0,1,6.88-21.54l6.39-16.14h80v-6.37h-78l56.58-141.55,21.45,54.52V687.7h-9.32L104.79,900a208.28,208.28,0,0,1-19.88,37.18Q52.3,986,0,986v6.36H170Z"/><path class="cls-2" d="M232.41,882.14H198.16v6.37h37.4l22.88,58.09A109.88,109.88,0,0,1,262,958.38l1.39,8.21q0,15.55-27.22,18.89-5.21.49-37.61.49l.22,6.34h180V986l-8.42,0q-27.45,0-40-7.69-13.82-8.35-27.87-42.46L200.29,687.7h-2.13V795.11Z"/><path class="cls-4" d="M232.41,882.14H198.16v6.37h37.4l22.88,58.09A109.88,109.88,0,0,1,262,958.38l1.39,8.21q0,15.55-27.22,18.89-5.21.49-37.61.49l.22,6.34h180V986l-8.42,0q-27.45,0-40-7.69-13.82-8.35-27.87-42.46L200.29,687.7h-2.13V795.11Z"/><path class="cls-4" d="M896.93,353.85H756.7V354q39.64,0,54.6,18.27,13.23,16.26,13.22,58.06V588L620.68,353.85H531.77q35.84,1,56.59,26.13V563.15q0,38.33-13.15,55.93-14.79,20.13-50.9,20.23c-23.9-.07-40.14-2.48-48.61-7.25q-18.54-10.56-18.54-44V404.87q0-33.69,18.32-44,11.58-6.4,43.53-7h-9.74v-6.43h-168v6.37q38.08,0,50.63,6.83,18.63,10.11,18.63,44.25V588q0,33.9-18.84,44.24-12.76,7.07-50.42,7.05v5.59H597v.79h64v-6.38q-37.11,0-52-19.8-13-17.38-13-56.79V389.06L824.82,651.14l7.39-.06V430q0-38.75,13.16-56.15Q860.26,354,897.15,354v-6.61h-.22Z"/><polygon class="cls-2" points="523.9 645.7 525.46 645.7 596.97 645.7 596.97 644.91 341.25 644.91 341.25 645.7 523.9 645.7"/><polygon class="cls-4" points="523.9 645.7 525.46 645.7 596.97 645.7 596.97 644.91 341.25 644.91 341.25 645.7 523.9 645.7"/><rect class="cls-3" x="756.7" y="347.42" width="140.23" height="6.43"/><rect class="cls-4" x="756.7" y="347.42" width="140.23" height="6.43"/><path class="cls-3" d="M519,353.85c2.1,0,4.23-.06,6.45-.06h3.41c1,0,1.94,0,2.9.06h88.91l-5.6-6.43H509.27v6.43Z"/><path class="cls-4" d="M519,353.85c2.1,0,4.23-.06,6.45-.06h3.41c1,0,1.94,0,2.9.06h88.91l-5.6-6.43H509.27v6.43Z"/><rect class="cls-4" x="670.49" y="0.01" width="136.11" height="6.1"/><path class="cls-4" d="M624.8,6.11V0H312.07l-79.6,235.41L151.27,0h-129V6.37h3.67q34.77,0,46.43,6.16Q90,22,90,53.05V199q0,56.81-14.25,74-15.56,18.94-53.56,18.93v6.38H169.15v-6.38q-45.1,0-60-24.22Q97.73,249,97.73,199V8.82h12.21L210.41,298.29h8.43L316.72,8.82H328.6V240.63q0,29.72-11.75,40.5-14.16,10.78-47.66,10.78v6.38H443.12v-6.38q-37.5,0-50-7-17.88-10.11-17.88-44.21v-183q0-33.87,18.11-44,12.48-7,49.76-7V6.4c23.94.16,40,2.42,48.11,6.8q15.38,8.37,18,33.12V6.11Z"/><path class="cls-3" d="M509.85,187.73q0,40.29,3.66,55.47,9.51,39.62,55.1,55.47,28.53,9.88,65.9,9.9,58.34,0,84.92-28.17t26.57-92V71.08q0-64.69,60.61-64.71V6.11H670.49v.26q18.36,0,30,3.74,35.87,11.88,35.87,59V191.64q0,55-20.51,80.74-22.7,28.86-75.36,28.84-47.29,0-66.31-21.57-17.7-20.23-17.7-69.08V57.43q0-33.66,18.31-44,12.71-7,50-7V6.11H509.27V46.32a102,102,0,0,1,.58,11.12Z"/><path class="cls-4" d="M509.85,187.73q0,40.29,3.66,55.47,9.51,39.62,55.1,55.47,28.53,9.88,65.9,9.9,58.34,0,84.92-28.17t26.57-92V71.08q0-64.69,60.61-64.71V6.11H670.49v.26q18.36,0,30,3.74,35.87,11.88,35.87,59V191.64q0,55-20.51,80.74-22.7,28.86-75.36,28.84-47.29,0-66.31-21.57-17.7-20.23-17.7-69.08V57.43q0-33.66,18.31-44,12.71-7,50-7V6.11H509.27V46.32a102,102,0,0,1,.58,11.12Z"/><path class="cls-2" d="M250.66,695.6h5.72l3.79,9.46h5.29l-4.32-10.33a6.42,6.42,0,0,0,4.32-6.34c0-7.1-7.51-7.1-8.88-7.1H245.69v23.77h5Zm0-10.44h5.61c3.05,0,4,1.72,4,3.13,0,2.89-2.76,3.32-4.45,3.32h-5.18Z"/><path class="cls-4" d="M250.66,695.6h5.72l3.79,9.46h5.29l-4.32-10.33a6.42,6.42,0,0,0,4.32-6.34c0-7.1-7.51-7.1-8.88-7.1H245.69v23.77h5Zm0-10.44h5.61c3.05,0,4,1.72,4,3.13,0,2.89-2.76,3.32-4.45,3.32h-5.18Z"/><path class="cls-2" d="M254.9,715.38a22.21,22.21,0,1,0-21.77-22.16A22,22,0,0,0,254.9,715.38Zm0-40.43a18.23,18.23,0,1,1-17.85,18.27A18,18,0,0,1,254.9,675Z"/><path class="cls-4" d="M254.9,715.38a22.21,22.21,0,1,0-21.77-22.16A22,22,0,0,0,254.9,715.38Zm0-40.43a18.23,18.23,0,1,1-17.85,18.27A18,18,0,0,1,254.9,675Z"/></svg>