<?xml version="1.0" encoding="utf-8"?>
<!-- Generator: Adobe Illustrator 16.0.0, SVG Export Plug-In . SVG Version: 6.00 Build 0)  -->
<!DOCTYPE svg PUBLIC "-//W3C//DTD SVG 1.1//EN" "http://www.w3.org/Graphics/SVG/1.1/DTD/svg11.dtd">
<svg version="1.1" id="Layer_1" xmlns="http://www.w3.org/2000/svg" xmlns:xlink="http://www.w3.org/1999/xlink" x="0px" y="0px"
	 width="595.279px" height="144.463px" viewBox="0 0 595.279 144.463" enable-background="new 0 0 595.279 144.463"
	 xml:space="preserve">
<g>
	<path fill="#FFFFFF" d="M568.403,52.494v8.399c-6.93-7.56-15.749-11.339-26.667-11.339c-13.019,0-23.518,4.619-31.497,14.068
		c-7.979,9.449-11.968,20.368-11.968,32.966c0,12.809,3.989,23.938,11.968,33.597c7.979,9.658,18.688,14.278,31.917,14.278
		c11.129,0,19.737-3.779,25.826-11.129h0.421v8.189h26.876v-89.03H568.403z M564.623,114.227c-4.199,5.039-9.658,7.769-16.378,7.769
		c-6.719,0-11.969-2.52-16.168-7.769c-4.199-5.04-6.299-10.919-6.299-17.429c0-6.509,2.1-12.178,6.299-17.218
		c4.199-5.039,9.659-7.559,16.168-7.559c6.51,0,11.969,2.52,16.378,7.559c4.2,5.04,6.3,10.919,6.3,17.218
		C571.133,103.308,569.033,109.187,564.623,114.227z"/>
	<polygon fill="#FFFFFF" points="115.486,1.05 81.05,91.339 44.935,1.05 24.566,1.05 0,141.524 28.767,141.524 41.785,56.694 
		42.205,56.694 74.121,143.414 83.99,143.414 117.166,56.694 117.586,56.694 129.345,141.524 158.111,141.524 136.063,1.05 	"/>
	<rect x="342.89" y="52.494" fill="#FFFFFF" width="27.087" height="89.03"/>
	<path fill="#FFFFFF" d="M447.877,49.554c-11.339,0-19.737,3.779-24.777,11.129h-0.42v-8.189h-27.087v89.03h27.087V97.429
		c0-3.78,0.21-6.72,0.42-9.029s0.84-5.039,1.68-8.399c0.841-3.359,2.521-5.879,5.04-7.559c2.31-1.68,5.459-2.52,9.239-2.52
		c2.939,0,5.459,0.63,7.559,1.68s3.359,2.31,4.409,3.569c0.84,1.26,1.68,3.359,2.101,6.089c0.42,2.94,0.84,4.83,0.84,6.09v7.139
		v47.245h27.086V87.14C480.843,62.153,469.925,49.554,447.877,49.554z"/>
	<path fill="#FFFFFF" d="M356.328,0c-4.41,0-8.189,1.47-11.339,4.41s-4.83,6.509-4.83,10.708c0,4.2,1.471,7.77,4.62,10.709
		s6.929,4.41,11.549,4.41c4.619,0,8.398-1.47,11.548-4.41c3.15-2.939,4.62-6.509,4.62-10.709c0-4.199-1.68-7.559-4.83-10.708
		C364.517,1.47,360.737,0,356.328,0z"/>
	<path fill="#FFFFFF" d="M232.232,100.789h0.21c0,14.908-5.249,22.257-15.538,22.257s-15.538-7.349-15.538-22.257V52.494h-27.297
		v52.494c0,26.457,14.278,39.476,42.625,39.476c28.557,0,42.625-13.229,42.625-39.476V52.494h-27.087V100.789z"/>
	<polygon fill="#FFFFFF" points="313.913,22.257 286.826,22.257 286.826,52.494 277.377,52.494 277.377,73.912 286.826,73.912 
		286.826,141.524 313.913,141.524 313.913,73.912 330.711,73.912 330.711,52.494 313.913,52.494 	"/>
</g>
</svg>
