<?xml version="1.0" encoding="utf-8"?>
<!-- Generator: Adobe Illustrator 23.0.3, SVG Export Plug-In . SVG Version: 6.00 Build 0)  -->
<svg version="1.1" id="Livello_1" xmlns="http://www.w3.org/2000/svg" xmlns:xlink="http://www.w3.org/1999/xlink" x="0px" y="0px"
	 viewBox="0 0 28.35 6.88" style="enable-background:new 0 0 28.35 6.88;" xml:space="preserve">
<style type="text/css">
	.st0{fill:none;}
</style>
<g>
	<path class="st0" d="M26.12,3.43c-0.31,0-0.57,0.12-0.77,0.36c-0.2,0.24-0.3,0.52-0.3,0.82c0,0.31,0.1,0.58,0.3,0.83
		c0.2,0.24,0.46,0.37,0.77,0.37s0.57-0.12,0.78-0.37c0.2-0.24,0.3-0.52,0.3-0.83c0-0.31-0.1-0.58-0.3-0.82
		C26.69,3.55,26.43,3.43,26.12,3.43z"/>
	<path d="M27.07,2.5v0.4c-0.33-0.36-0.75-0.54-1.27-0.54c-0.62,0-1.12,0.22-1.5,0.67C23.92,3.48,23.73,4,23.73,4.6
		c0,0.61,0.19,1.14,0.57,1.6c0.38,0.46,0.89,0.68,1.52,0.68c0.53,0,0.94-0.18,1.23-0.53h0.02v0.39h1.28V2.5H27.07z M26.89,5.44
		c-0.2,0.24-0.46,0.37-0.78,0.37s-0.57-0.12-0.77-0.37c-0.2-0.24-0.3-0.52-0.3-0.83c0-0.31,0.1-0.58,0.3-0.82
		c0.2-0.24,0.46-0.36,0.77-0.36s0.57,0.12,0.78,0.36c0.2,0.24,0.3,0.52,0.3,0.82C27.2,4.92,27.1,5.2,26.89,5.44z"/>
	<polygon points="5.5,0.05 3.86,4.35 2.14,0.05 1.17,0.05 0,6.74 1.37,6.74 1.99,2.7 2.01,2.7 3.53,6.83 4,6.83 5.58,2.7 5.6,2.7 
		6.16,6.74 7.53,6.74 6.48,0.05 	"/>
	<rect x="16.33" y="2.5" width="1.29" height="4.24"/>
	<path d="M21.33,2.36c-0.54,0-0.94,0.18-1.18,0.53h-0.02V2.5h-1.29v4.24h1.29v-2.1c0-0.18,0.01-0.32,0.02-0.43
		c0.01-0.11,0.04-0.24,0.08-0.4c0.04-0.16,0.12-0.28,0.24-0.36c0.11-0.08,0.26-0.12,0.44-0.12c0.14,0,0.26,0.03,0.36,0.08
		c0.1,0.05,0.16,0.11,0.21,0.17c0.04,0.06,0.08,0.16,0.1,0.29c0.02,0.14,0.04,0.23,0.04,0.29V4.5v2.25h1.29V4.15
		C22.9,2.96,22.38,2.36,21.33,2.36z"/>
	<path d="M16.97,0c-0.21,0-0.39,0.07-0.54,0.21c-0.15,0.14-0.23,0.31-0.23,0.51c0,0.2,0.07,0.37,0.22,0.51
		c0.15,0.14,0.33,0.21,0.55,0.21c0.22,0,0.4-0.07,0.55-0.21s0.22-0.31,0.22-0.51c0-0.2-0.08-0.36-0.23-0.51
		C17.36,0.07,17.18,0,16.97,0z"/>
	<path d="M11.07,4.8c0,0.71-0.25,1.06-0.74,1.06c-0.49,0-0.74-0.35-0.74-1.06V2.5H8.29V5c0,1.26,0.68,1.88,2.03,1.88
		c1.36,0,2.03-0.63,2.03-1.88V2.5h-1.29V4.8z"/>
	<polygon points="14.95,1.06 13.66,1.06 13.66,2.5 13.21,2.5 13.21,3.52 13.66,3.52 13.66,6.74 14.95,6.74 14.95,3.52 15.75,3.52 
		15.75,2.5 14.95,2.5 	"/>
</g>
</svg>
