<?xml version="1.0" encoding="utf-8"?>
<!-- Generator: Adobe Illustrator 23.0.3, SVG Export Plug-In . SVG Version: 6.00 Build 0)  -->
<svg version="1.1" id="Livello_4" xmlns="http://www.w3.org/2000/svg" xmlns:xlink="http://www.w3.org/1999/xlink" x="0px" y="0px"
	 viewBox="0 0 110 121.7" style="enable-background:new 0 0 110 121.7;" xml:space="preserve">
<style type="text/css">
	.st0{fill:#CFCFCF;}
	.st1{fill:#ECECEC;}
	.st2{fill:#1D1D1B;}
</style>
<rect x="24.3" y="79.1" class="st0" width="48.9" height="42.6"/>
<rect x="62.4" y="0.7" class="st1" width="47.5" height="42.6"/>
<path class="st2" d="M25.3,72.1c0,2.8,0.7,4.6,2.2,5.5c1,0.6,3.1,0.8,6.2,0.8v0.8H11.1v-0.8c3.1,0,5.2-0.3,6.2-0.9
	c1.5-0.8,2.3-2.6,2.3-5.4V43.4h-1.8c-3.6,0-6.5,1.6-8.6,4.8c-1.3,2-2.7,5.2-4,9.8H4.4l0.4-15.4h35.4L40.6,58h-0.8
	c-1.4-4.6-2.7-7.9-4-9.9c-2.1-3.2-5-4.7-8.7-4.7h-1.7L25.3,72.1L25.3,72.1z"/>
<g>
	<path class="st2" d="M45.4,120.9c-2.2,0-3.9-0.3-4.9-0.9c-1.1-0.7-2.3-2.4-3.4-5.2L24.6,84.3h-1.4l-10.3,26c-0.6,1.5-1.4,3-2.4,4.6
		c-2.7,4-6.1,6-10.4,6v0.8h20.8l-0.2-0.8c-5.4,0-8.1-1.8-8.1-5.3l0.3-2c0.2-1,0.5-1.8,0.8-2.6l0.8-2h14.4l2.8,7.1
		c0.2,0.7,0.4,1.2,0.4,1.4l0.2,1c0,1.3-1.1,2-3.3,2.3c-0.4,0-2,0.1-4.6,0.1v0.8h22.1v-0.8H45.4z M14.7,108.2l6.9-17.4l6.8,17.4H14.7
		z"/>
	<path class="st2" d="M31.3,87.7c1.5,0,2.7-1.2,2.7-2.7s-1.2-2.7-2.7-2.7s-2.7,1.2-2.7,2.7C28.6,86.5,29.8,87.7,31.3,87.7z
		 M31.3,82.8c1.2,0,2.2,1,2.2,2.2s-1,2.2-2.2,2.2s-2.2-1-2.2-2.2C29.1,83.7,30.1,82.8,31.3,82.8z"/>
	<path class="st2" d="M30.7,85.3h0.7l0.5,1.2h0.6L32,85.2c0.1-0.1,0.5-0.2,0.5-0.8c0-0.9-0.9-0.9-1.1-0.9h-1.3v2.9h0.6V85.3z
		 M30.7,84h0.7c0.4,0,0.5,0.2,0.5,0.4c0,0.4-0.3,0.4-0.5,0.4h-0.6V84H30.7z"/>
</g>
<path class="st2" d="M82.2,0v0.8c1.5,0,2.7,0.2,3.7,0.5c2.9,1,4.4,3.4,4.4,7.2v15c0,4.5-0.8,7.8-2.5,9.9c-1.9,2.4-4.9,3.5-9.2,3.5
	c-3.9,0-6.6-0.9-8.1-2.6c-1.4-1.7-2.2-4.5-2.2-8.5V7c0-2.8,0.7-4.6,2.2-5.4c1-0.6,3.1-0.9,6.1-0.9V0H54.9v0.8c2.6,0,4.4,0.3,5.3,0.8
	c1.5,0.8,2.3,2.6,2.3,5.4v16c0,3.3,0.1,5.6,0.4,6.8c0.8,3.2,3,5.5,6.8,6.8c2.3,0.8,5,1.2,8.1,1.2c4.8,0,8.2-1.2,10.4-3.5
	c2.2-2.3,3.3-6.1,3.3-11.3V8.7c0-5.3,2.5-7.9,7.4-7.9V0H82.2z"/>
<path class="st2" d="M54.3,0H54H38.3l-9.8,28.9L18.5,0H2.7v0.8h0.5C6,0.8,7.9,1,8.9,1.5C10.3,2.3,11,4,11,6.5v17.9
	c0,4.6-0.6,7.7-1.7,9.1C8,35,5.8,35.8,2.7,35.8v0.8h18v-0.8c-3.7,0-6.1-1-7.4-3c-0.9-1.5-1.4-4.3-1.4-8.4V1.1h1.5l12.3,35.5h1
	l12-35.5h1.5v28.4c0,2.4-0.5,4.1-1.4,5c-1.2,0.9-3.1,1.3-5.8,1.3v0.8h21.3v-0.8c-3.1,0-5.1-0.3-6.1-0.9c-1.5-0.8-2.2-2.6-2.2-5.4
	V7.1c0-2.8,0.7-4.6,2.2-5.4c1-0.6,3.1-0.9,6.1-0.9c0.2,0,0.4,0,0.6,0V0H54.3z"/>
<path class="st2" d="M92.8,42.6v0.8c3.2,0,5.5,0.7,6.7,2.2c1.1,1.3,1.6,3.7,1.6,7.1V72L75.4,42.6h-11h-0.2h-0.3v0.7
	c0.2,0,0.3,0,0.4,0h0.4c3.1,0,5.5,1.1,7.3,3.2V69h0.1c0,3.1-0.5,5.4-1.6,6.9c-1.2,1.6-3.3,2.5-6.2,2.5c-0.2,0-0.3,0-0.4,0v0.8h0.3
	h0.2H81v-0.8c-3,0-5.2-0.8-6.4-2.4c-1.1-1.4-1.6-3.7-1.6-7V47.7l28,32.1h0.9V52.7c0-3.2,0.5-5.5,1.6-6.9c1.2-1.6,3.3-2.4,6.3-2.4
	v-0.8H92.8z"/>
<path class="st2" d="M58.3,77.5c-1.5-0.9-2.3-2.7-2.3-5.4V49.6c0-2.8,0.7-4.6,2.2-5.4c0.9-0.6,2.9-0.9,5.7-0.9v-0.7H41.8v0.8
	c3.1,0,5.2,0.3,6.2,0.8c1.5,0.8,2.3,2.6,2.3,5.4v22.5c0,2.8-0.8,4.6-2.3,5.4c-1,0.6-3.1,0.9-6.2,0.9v0.8h22.1v-0.8
	C61.2,78.4,59.3,78.1,58.3,77.5z"/>
</svg>
